<svg xmlns="http://www.w3.org/2000/svg" width="160" height="160" viewBox="0 0 160 160"><g stroke-linecap="round" stroke-linejoin="round"><circle cx="42" cy="45" r="23" fill="#aeb5c2"/><circle cx="118" cy="45" r="23" fill="#aeb5c2"/><circle cx="80" cy="88" r="57" fill="#aeb5c2"/><circle cx="80" cy="101" r="28" fill="#aeb5c2"/><circle cx="58" cy="79" r="6" fill="#aeb5c2"/><circle cx="102" cy="79" r="6" fill="#aeb5c2"/><ellipse cx="80" cy="94" rx="9" ry="7" fill="#aeb5c2"/><path d="M80 101c-6 9-13 11-20 7M80 101c6 9 13 11 20 7" fill="none" stroke="#aeb5c2" stroke-width="4"/><path fill="#aeb5c2" d="M118 21l5 10 11 2-8 8 2 11-10-5-10 5 2-11-8-8 11-2Z"/></g></svg>
