<svg xmlns="http://www.w3.org/2000/svg" width="160" height="160" viewBox="0 0 160 160"><g stroke-linecap="round" stroke-linejoin="round"><circle cx="43" cy="43" r="25" fill="#63c58f"/><circle cx="117" cy="43" r="25" fill="#8dd5ff"/><circle cx="80" cy="88" r="57" fill="#ffc85a"/><ellipse cx="57" cy="78" rx="16" ry="21" fill="#f08bb4" transform="rotate(25 57 78)"/><ellipse cx="103" cy="78" rx="16" ry="21" fill="#63c58f" transform="rotate(-25 103 78)"/><circle cx="58" cy="77" r="5" fill="#fff"/><circle cx="102" cy="77" r="5" fill="#fff"/><ellipse cx="80" cy="103" rx="10" ry="8" fill="#8dd5ff"/><path fill="#f08bb4" d="M54 26c-14-15-27-2-15 13 5 6 10 8 15 10 5-2 10-4 15-10 12-15-1-28-15-13Z"/></g></svg>
