<svg xmlns="http://www.w3.org/2000/svg" width="160" height="160" viewBox="0 0 160 160"><g stroke-linecap="round" stroke-linejoin="round"><path fill="#5fb5e8" d="M25 80c22-32 61-42 91-16l24-21-4 37 4 37-24-21C86 122 47 112 25 80Z"/><path fill="#b6d957" d="M67 56 82 31l17 29M67 104l15 25 17-29"/><circle cx="54" cy="72" r="6" fill="#fff"/><circle cx="55" cy="72" r="3" fill="#263756"/><path d="M36 88c7 5 14 5 21 0" fill="none" stroke="#f2a65a" stroke-width="5"/><path fill="#b6d957" d="M34 43c8-18 22-24 37-25l-8 30Z"/><circle cx="48" cy="29" r="6" fill="#5fb5e8"/></g></svg>
