<svg xmlns="http://www.w3.org/2000/svg" width="160" height="160" viewBox="0 0 160 160"><g stroke-linecap="round" stroke-linejoin="round"><path fill="#ffd867" d="M25 55c13-26 97-26 110 0-4 49-26 80-55 96-29-16-51-47-55-96Z"/><path fill="#8d7be8" d="M80 55 60 31l2 25-33-18 21 29 30-12 30 12 21-29-33 18 2-25Z"/><g fill="#ff9e57"><ellipse cx="55" cy="84" rx="4" ry="7"/><ellipse cx="86" cy="76" rx="4" ry="7"/><ellipse cx="108" cy="96" rx="4" ry="7"/><ellipse cx="72" cy="116" rx="4" ry="7"/></g><path fill="#ff9e57" d="M57 34 65 12l15 17 15-17 8 22Z"/><circle cx="65" cy="25" r="3" fill="#ffffff"/><circle cx="80" cy="20" r="3" fill="#ffffff"/><circle cx="95" cy="25" r="3" fill="#ffffff"/></g></svg>
