<svg xmlns="http://www.w3.org/2000/svg" width="160" height="160" viewBox="0 0 160 160"><g stroke-linecap="round" stroke-linejoin="round"><path fill="#5fb5e8" d="M35 72c0-27 20-43 45-43s45 16 45 43v42c0 27-20 40-45 40s-45-13-45-40Z"/><path fill="#b6d957" d="m80 38-7-32 18 28 10-27 2 34 24-19-14 34H48L34 22l24 19 2-34 10 27 10-28Z"/><g stroke="#f2a65a" stroke-width="5"><path d="m46 77 68 55M46 105l53 43M114 77l-68 55M114 105l-53 43"/></g><path fill="#b6d957" d="M34 43c8-18 22-24 37-25l-8 30Z"/><circle cx="48" cy="29" r="6" fill="#5fb5e8"/></g></svg>
