<svg xmlns="http://www.w3.org/2000/svg" width="160" height="160" viewBox="0 0 160 160"><g stroke-linecap="round" stroke-linejoin="round"><path fill="#5fb5e8" d="M80 25c17 0 24 19 22 35 28 15 39 50 22 72-18 22-70 22-88 0-17-22-6-57 22-72-2-16 5-35 22-35Z"/><path d="M82 29c0-10 5-17 13-22" fill="none" stroke="#b6d957" stroke-width="7"/><path fill="#f2a65a" d="M89 23c12-14 26-9 32 1-11 7-22 7-32-1Z"/><path fill="#b6d957" d="M34 43c8-18 22-24 37-25l-8 30Z"/><circle cx="48" cy="29" r="6" fill="#5fb5e8"/></g></svg>
