<svg xmlns="http://www.w3.org/2000/svg" width="160" height="160" viewBox="0 0 160 160"><g stroke-linecap="round" stroke-linejoin="round"><ellipse cx="117.0" cy="72.0" rx="16" ry="20" fill="#aeb5c2" transform="rotate(90.0 117.0 72.0)"/><ellipse cx="109.9" cy="93.7" rx="16" ry="20" fill="#aeb5c2" transform="rotate(126.0 109.9 93.7)"/><ellipse cx="91.4" cy="107.2" rx="16" ry="20" fill="#aeb5c2" transform="rotate(162.0 91.4 107.2)"/><ellipse cx="68.6" cy="107.2" rx="16" ry="20" fill="#aeb5c2" transform="rotate(198.0 68.6 107.2)"/><ellipse cx="50.1" cy="93.7" rx="16" ry="20" fill="#aeb5c2" transform="rotate(234.0 50.1 93.7)"/><ellipse cx="43.0" cy="72.0" rx="16" ry="20" fill="#aeb5c2" transform="rotate(270.0 43.0 72.0)"/><ellipse cx="50.1" cy="50.3" rx="16" ry="20" fill="#aeb5c2" transform="rotate(306.0 50.1 50.3)"/><ellipse cx="68.6" cy="36.8" rx="16" ry="20" fill="#aeb5c2" transform="rotate(342.0 68.6 36.8)"/><ellipse cx="91.4" cy="36.8" rx="16" ry="20" fill="#aeb5c2" transform="rotate(378.0 91.4 36.8)"/><ellipse cx="109.9" cy="50.3" rx="16" ry="20" fill="#aeb5c2" transform="rotate(414.0 109.9 50.3)"/><circle cx="80" cy="72" r="20" fill="#aeb5c2"/><path d="M80 92v62" stroke="#aeb5c2" stroke-width="9"/><path fill="#aeb5c2" d="M79 126c-20-20-36-8-39 7 15 6 28 3 39-7ZM81 139c18-18 34-7 37 6-14 6-26 3-37-6Z"/></g></svg>
